# AST/ASF file generated using VICON BodyLanguage
# -----------------------------------------------
:version 1.10
:name VICON
:units
  mass 1.0
  length 0.45
  angle deg
:documentation
   .ast/.asf automatically generated from VICON data using
   VICON BodyBuilder and BodyLanguage model FoxedUp or BRILLIANT.MOD
:root
   order TX TY TZ RX RY RZ
   axis XYZ
   position 0 0 0  
   orientation 0 0 0 
:bonedata
  begin
     id 1 
     name lhipjoint
     direction 0.702568 -0.596508 0.388042 
     length 2.56661 
     axis 0 0 0  XYZ
  end
  begin
     id 2 
     name lfemur
     direction 0.34202 -0.939693 0  
     length 6.58374  
     axis 0 0 20  XYZ
    dof rx ry rz
    limits (-160.0 20.0)
           (-70.0 70.0)
           (-60.0 70.0)
  end
  begin
     id 3 
     name ltibia
     direction 0.34202 -0.939693 0   
     length 6.62538   
     axis 0 0 20   XYZ
    dof rx
    limits (-10.0 170.0)
  end
  begin
     id 4 
     name lfoot
     direction 0.10455 -0.287249 0.952133   
     length 2.26699   
     axis -90 7.62852e-016 20   XYZ
    dof rx rz
    limits (-45.0 90.0)
           (-70.0 20.0)
  end
  begin
     id 5 
     name ltoes
     direction 1.53572e-011 -4.22322e-011 1   
     length 1.12949   
     axis -90 7.62852e-016 20   XYZ
    dof rx
    limits (-90.0 20.0)
  end
  begin
     id 6 
     name rhipjoint
     direction -0.728055 -0.574632 0.373811   
     length 2.66432  
     axis 0 0 0  XYZ 
  end
  begin
     id 7 
     name rfemur
     direction -0.34202 -0.939693 0   
     length 6.66732   
     axis 0 0 -20   XYZ
    dof rx ry rz
    limits (-160.0 20.0)
           (-70.0 70.0)
           (-70.0 60.0)
  end
  begin
     id 8 
     name rtibia
     direction -0.34202 -0.939693 0   
     length 6.59288   
     axis 0 0 -20   XYZ
    dof rx
    limits (-10.0 170.0)
 end
 begin
     id 9 
     name rfoot
     direction -0.119193 -0.327479 0.93731   
     length 2.38061  
     axis -90 -7.62852e-016 -20   XYZ
    dof rx rz
    limits (-45.0 90.0)
           (-20.0 70.0)
  end
  begin
     id 10 
     name rtoes
     direction -1.53547e-011 -4.21827e-011 1   
     length 1.17899   
     axis -90 -7.62852e-016 -20   XYZ
    dof rx
    limits (-90.0 20.0)
  end
  begin
     id 11 
     name lowerback
     direction -0.000416114 0.999912 -0.0132284   
     length 2.12109   
     axis 0 0 0   XYZ
    dof rx ry rz
    limits (-20.0 45.0)
           (-30.0 30.0)
           (-30.0 30.0)
  end
  begin
     id 12 
     name upperback
     direction -0.00136371 0.99809 0.0617608   
     length 2.10067   
     axis 0 0 0   XYZ
    dof rx ry rz
    limits (-20.0 45.0)
           (-30.0 30.0)
           (-30.0 30.0)
  end
  begin
     id 13 
     name thorax
     direction -3.43026e-005 0.997776 0.0666515   
     length 2.10618   
     axis 0 0 0   XYZ
    dof rx ry rz
    limits (-20.0 45.0)
           (-30.0 30.0)
           (-30.0 30.0)
  end
  begin
     id 14 
     name lowerneck
     direction 0.0398646 0.998418 0.0396592   
     length 1.83817   
     axis 0 0 0   XYZ
    dof rx ry rz
    limits (-20.0 45.0)
           (-30.0 30.0)
           (-30.0 30.0)
  end
  begin
     id 15 
     name upperneck
     direction -0.0367268 0.961527 -0.272244   
     length 1.81975   
     axis 0 0 0   XYZ
    dof rx ry rz
    limits (-20.0 45.0)
           (-30.0 30.0)
           (-30.0 30.0)
  end
  begin
     id 16
     name head
     direction -0.0182665 0.99536 -0.0944669  
     length 1.86026  
     axis 0 0 0   XYZ
    dof rx ry rz
    limits (-20.0 45.0)
           (-30.0 30.0)
           (-30.0 30.0)
  end
  begin
     id 17 
     name lclavicle
     direction 0.924239 0.361045 0.124212  
     length 3.26878  
     axis 0 0 0   XYZ
    dof ry rz
    limits (-20.0 10.0)
           (0.0 20.0)
  end
  begin
     id 18 
     name lhumerus
     direction 1 -4.48968e-011 -2.56583e-027   
     length 4.58538   
     axis 180 -30 -90   XYZ
    dof rx ry rz
    limits (-60.0 90.0)
           (-90.0 90.0)
           (-90.0 90.0)
  end
  begin
     id 19
     name lradius
     direction 1 -4.4898e-011 -5.50375e-027   
     length 2.68935   
     axis 180 -30 -90   XYZ
    dof rx
    limits (-10.0 170.0)
  end
  begin
     id 20
     name lwrist
     direction 1 -4.48939e-011 -1.48955e-026   
     length 1.34468   
     axis 9.0955e-015 90 90   XYZ
    dof ry
    limits (-180.0 0.0)
 end
  begin
     id 21 
     name lhand
     direction 1 -4.48936e-011 -2.97907e-026   
     length 0.585058   
     axis 1.90115e-014 90 90   XYZ
    dof rx rz
    limits (-90.0 90.0)
           (-45.0 45.0)
  end
  begin
     id 22 
     name lfingers
     direction 1 -4.49082e-011 -5.96235e-026   
     length 0.471689   
     axis 3.80223e-014 90 90   XYZ
    dof rx
    limits (0.0 90.0)
  end
  begin
     id 23
     name lthumb
     direction 0.707107 -6.3489e-011 0.707107   
     length 0.677253   
     axis -90 45 -3.84942e-014   XYZ
    dof rx rz
    limits (-45.0 45.0)
           (-45.0 45.0)
  end
  begin
     id 24 
     name rclavicle
     direction -0.923098 0.371783 0.0983239   
     length 3.19656  
     axis 0 0 0   XYZ 
    dof ry rz
    limits (-10.0 20.0)
           (-20.0 0.0)
  end
  begin
     id 25 
     name rhumerus
     direction -1 -4.48976e-011 -2.5492e-027  
     length 4.4745   
     axis 180 30 90   XYZ
    dof rx ry rz
    limits (-90.0 60.0)
           (-90.0 90.0)
           (-90.0 90.0)
  end
  begin
     id 26 
     name rradius
     direction -1 -4.48941e-011 -4.36555e-027   
     length 2.93896   
     axis 180 30 90   XYZ
    dof rx
    limits (-10.0 170.0)
  end
  begin
     id 27 
     name rwrist
     direction -1 -4.49044e-011 -1.49032e-026   
     length 1.46948   
     axis 9.0955e-015 -90 -90   XYZ
    dof ry
    limits (-180.0 0.0)
  end
  begin
     id 28
     name rhand
     direction -1 -4.48826e-011 -2.97749e-026   
     length 0.405092   
     axis 1.90115e-014 -90 -90   XYZ
    dof rx rz
    limits (-90.0 90.0)
           (-45.0 45.0)
  end
  begin
     id 29
     name rfingers
     direction -1 -4.49209e-011 -5.96602e-026   
     length 0.326596   
     axis 3.80223e-014 -90 -90   XYZ
    dof rx
    limits (0.0 90.0)
  end
  begin
     id 30
     name rthumb
     direction -0.707107 -6.34776e-011 0.707107   
     length 0.468928   
     axis -90 -45 3.84942e-014   XYZ
    dof rx rz
    limits (-45.0 45.0)
           (-45.0 45.0)
  end
:hierarchy
  begin
    root lhipjoint rhipjoint lowerback
    lhipjoint lfemur
    lfemur ltibia
    ltibia lfoot
    lfoot ltoes
    rhipjoint rfemur
    rfemur rtibia
    rtibia rfoot
    rfoot rtoes
    lowerback upperback
    upperback thorax
    thorax lowerneck lclavicle rclavicle
    lowerneck upperneck
    upperneck head
    lclavicle lhumerus
    lhumerus lradius
    lradius lwrist
    lwrist lhand lthumb
    lhand lfingers
    rclavicle rhumerus
    rhumerus rradius
    rradius rwrist
    rwrist rhand rthumb
    rhand rfingers
  end

#!OML:ASF H:\Punching\Project 1\Capture day 1\Session 1\female.ASF
:FULLY-SPECIFIED
:DEGREES
257
root -2.00946 15.3495 5.80361 12.1872 38.4586 -0.128196
lowerback 3.46381 1.97973 6.48552
upperback -4.92893 2.94347 -3.25098
thorax -6.64362 1.04657 -7.36078
lowerneck -7.46198 -6.23845 -1.67164
upperneck 20.6866 -9.12958 4.42591
head 7.89366 -4.00564 0.909231
rclavicle -1.11046e-013 1.59028e-015
rhumerus 10.4495 16.9769 -76.0771
rradius 138.849
rwrist -46.9103
rhand -22.7455 -4.24417
rfingers 7.12502
rthumb 3.68883 -34.192
lclavicle -1.11046e-013 1.59028e-015
lhumerus 6.21143 -37.2305 79.1906
lradius 143.833
lwrist 36.0592
lhand -22.7503 23.707
lfingers 7.12502
lthumb 3.68425 53.6549
rfemur -29.9476 -9.05399 14.7727
rtibia 41.0754
rfoot -16.6873 -19.2839
rtoes -4.71582
lfemur -29.8112 -10.9607 3.67924
ltibia 45.6807
lfoot -9.47373 -7.02794
ltoes -15.5694
258
root -2.01485 15.3289 5.81903 12.4497 37.5905 0.158302
lowerback 3.42374 2.12823 6.14165
upperback -4.93848 3.11315 -3.33041
thorax -6.6102 1.14808 -7.25938
lowerneck -7.67413 -6.10081 -1.41851
upperneck 20.8026 -8.98275 4.40893
head 7.95307 -3.91124 0.868705
rclavicle -1.18202e-013 -2.34566e-014
rhumerus 10.057 17.2942 -76.6566
rradius 138.84
rwrist -47.0508
rhand -22.7287 -4.28351
rfingers 7.12502
rthumb 3.70513 -34.2311
lclavicle -1.18202e-013 -2.34566e-014
lhumerus 6.25269 -37.0008 78.9787
lradius 143.878
lwrist 35.9497
lhand -22.8072 23.7672
lfingers 7.12502
lthumb 3.62928 53.716
rfemur -30.6228 -8.59347 14.5099
rtibia 41.8588
rfoot -16.8916 -18.9803
rtoes -5.11486
lfemur -28.5097 -11.342 3.94672
ltibia 44.92
lfoot -8.41675 -7.13646
ltoes -15.789
259
root -2.0162 15.3072 5.8323 12.7153 36.6367 0.388197
lowerback 3.35457 2.27042 5.85233
upperback -4.97128 3.27701 -3.41856
thorax -6.58503 1.24273 -7.19742
lowerneck -7.87627 -5.93648 -1.09052
upperneck 20.9001 -8.80021 4.33914
head 7.99799 -3.8 0.803019
rclavicle -5.4467e-014 -2.78299e-015
rhumerus 9.59414 17.6329 -77.2898
rradius 138.81
rwrist -47.1135
rhand -22.6648 -4.28676
rfingers 7.12502
rthumb 3.76684 -34.2332
lclavicle -5.4467e-014 -2.78299e-015
lhumerus 6.30158 -36.7538 78.6821
lradius 143.901
lwrist 35.7155
lhand -22.7973 23.8484
lfingers 7.12502
lthumb 3.6388 53.7971
rfemur -31.3544 -7.9788 14.2538
rtibia 42.6238
rfoot -17.0738 -18.7474
rtoes -5.48019
lfemur -27.0518 -11.7854 4.16983
ltibia 43.7476
lfoot -7.50064 -7.30399
ltoes -16.6954
260
root -2.01306 15.2841 5.84263 12.9907 35.6114 0.5555
lowerback 3.24567 2.39899 5.62642
upperback -5.02819 3.42587 -3.5065
thorax -6.56369 1.326 -7.16889
lowerneck -8.07704 -5.74144 -0.68962
upperneck 20.9924 -8.57421 4.20257
head 8.03425 -3.66925 0.708126
rclavicle 9.78766e-014 -3.4191e-014
rhumerus 9.09898 17.989 -77.9481
rradius 138.738
rwrist -47.095
rhand -22.5326 -4.24638
rfingers 7.12502
rthumb 3.89447 -34.1905
lclavicle 9.78766e-014 -3.4191e-014
lhumerus 6.35604 -36.4746 78.3263
lradius 143.892
lwrist 35.375
lhand -22.7371 23.943
lfingers 7.12502
lthumb 3.69698 53.8907
rfemur -32.1526 -7.22869 14.0078
rtibia 43.3664
rfoot -17.2274 -18.5783
rtoes -5.79247
lfemur -25.4643 -12.2901 4.34267
ltibia 42.192
lfoot -6.91577 -7.47037
ltoes -18.4267
261
root -2.00513 15.2597 5.85024 13.2743 34.5139 0.652675
lowerback 3.09113 2.5129 5.45908
upperback -5.11095 3.55841 -3.58253
thorax -6.54508 1.39786 -7.15788
lowerneck -8.28593 -5.51102 -0.227709
upperneck 21.1021 -8.29763 3.99744
head 8.07218 -3.51591 0.585399
rclavicle 2.13942e-014 -4.37326e-015
rhumerus 8.59359 18.3859 -78.6037
rradius 138.624
rwrist -46.9933
rhand -22.4009 -4.18402
rfingers 7.12502
rthumb 4.02162 -34.1258
lclavicle 2.13942e-014 -4.37326e-015
lhumerus 6.40536 -36.147 77.9341
lradius 143.865
lwrist 34.9679
lhand -22.6552 24.0451
lfingers 7.12502
lthumb 3.77611 53.9914
rfemur -33.0189 -6.34906 13.777
rtibia 44.0808
rfoot -17.3418 -18.4668
rtoes -6.06933
lfemur -23.7617 -12.8317 4.45998
ltibia 40.3013
lfoot -6.82804 -7.54254
ltoes -20.7173
262
root -1.99204 15.2343 5.8554 13.569 33.334 0.685936
lowerback 2.88617 2.61254 5.33133
upperback -5.21502 3.67406 -3.63634
thorax -6.52268 1.45967 -7.14174
lowerneck -8.51387 -5.24117 0.286783
upperneck 21.2426 -7.96429 3.72176
head 8.11957 -3.33741 0.435556
rclavicle 3.86636e-014 1.35174e-014
rhumerus 8.10644 18.8294 -79.2276
rradius 138.459
rwrist -46.7994
rhand -22.2769 -4.10836
rfingers 7.12502
rthumb 4.14142 -34.0478
lclavicle 3.86636e-014 1.35174e-014
lhumerus 6.45771 -35.7447 77.52
lradius 143.835
lwrist 34.5354
lhand -22.5594 24.1901
lfingers 7.12502
lthumb 3.86855 54.1347
rfemur -33.9501 -5.35182 13.5524
rtibia 44.7554
rfoot -17.3951 -18.3905
rtoes -6.32305
lfemur -21.9613 -13.3852 4.5022
ltibia 38.1509
lfoot -7.30273 -7.40712
ltoes -23.3255
263
root -1.97293 15.2088 5.85792 13.8804 32.072 0.680878
lowerback 2.62758 2.68148 5.21239
upperback -5.32817 3.74922 -3.65033
thorax -6.4877 1.50236 -7.08159
lowerneck -8.78254 -4.91375 0.812257
upperneck 21.427 -7.54711 3.39066
head 8.18795 -3.12223 0.272099
rclavicle 5.54361e-014 3.18055e-015
rhumerus 7.68823 19.3687 -79.7867
rradius 138.236
rwrist -46.5191
rhand -22.2024 -4.06237
rfingers 7.12502
rthumb 4.21333 -34.0004
lclavicle 5.54361e-014 3.18055e-015
lhumerus 6.49983 -35.2161 77.1037
lradius 143.81
lwrist 34.1167
lhand -22.4863 24.3293
lfingers 7.12502
lthumb 3.93918 54.2727
rfemur -34.9267 -4.28353 13.3091
rtibia 45.3752
rfoot -17.3972 -18.3115
rtoes -6.55961
lfemur -20.0856 -13.9335 4.43047
ltibia 35.8378
lfoot -8.28938 -6.95788
ltoes -25.9324
264
root -1.94785 15.1846 5.85725 14.2087 30.7176 0.649226
lowerback 2.31545 2.72222 5.0833
upperback -5.43928 3.78646 -3.61471
thorax -6.42927 1.52912 -6.95601
lowerneck -9.07033 -4.53051 1.33548
upperneck 21.6367 -7.04547 3.00815
head 8.2695 -2.87199 0.0994508
rclavicle -2.95941e-014 1.23246e-014
rhumerus 7.35851 20.0132 -80.2506
rradius 137.956
rwrist -46.1513
rhand -22.1723 -4.0517
rfingers 7.12502
rthumb 4.24241 -33.9892
lclavicle -2.95941e-014 1.23246e-014
lhumerus 6.56395 -34.5567 76.6998
lradius 143.777
lwrist 33.7206
lhand -22.4263 24.506
lfingers 7.12502
lthumb 3.99712 54.4482
rfemur -35.9368 -3.16335 13.0338
rtibia 45.919
rfoot -17.3419 -18.1961
rtoes -6.74598
lfemur -18.1673 -14.4292 4.21819
ltibia 33.4694
lfoot -9.59259 -6.09849
ltoes -28.1804
265
root -1.91763 15.1627 5.85388 14.5503 29.2456 0.601859
lowerback 1.9682 2.74078 4.92455
upperback -5.55436 3.79347 -3.53589
thorax -6.36381 1.54368 -6.76341
lowerneck -9.34707 -4.08982 1.86208
upperneck 21.869 -6.4589 2.58665
head 8.35976 -2.58555 -0.0782557
rclavicle -8.48811e-014 2.18663e-014
rhumerus 7.1046 20.7618 -80.6265
rradius 137.63
rwrist -45.7182
rhand -22.1949 -4.08984
rfingers 7.12502
rthumb 4.22058 -34.0278
lclavicle -8.48811e-014 2.18663e-014
lhumerus 6.64002 -33.7847 76.3077
lradius 143.752
lwrist 33.3588
lhand -22.3785 24.7341
lfingers 7.12502
lthumb 4.04322 54.6755
rfemur -36.9706 -1.99928 12.7203
rtibia 46.3692
rfoot -17.2152 -18.0208
rtoes -6.91984
lfemur -16.2305 -14.8051 3.84071
ltibia 31.143
lfoot -10.9907 -4.78713
ltoes -29.9061
266
root -1.88178 15.145 5.84656 14.9086 27.6704 0.564779
lowerback 1.58887 2.73394 4.74366
upperback -5.65777 3.76577 -3.42885
thorax -6.27537 1.54397 -6.52398
lowerneck -9.59893 -3.59583 2.40129
upperneck 22.106 -5.79481 2.13541
head 8.45208 -2.26567 -0.259681
rclavicle -2.71093e-014 3.18055e-014
rhumerus 6.94135 21.589 -80.9113
rradius 137.272
rwrist -45.2676
rhand -22.2206 -4.17522
rfingers 7.12502
rthumb 4.19573 -34.1136
lclavicle -2.71093e-014 3.18055e-014
lhumerus 6.78126 -32.9214 75.9211
lradius 143.682
lwrist 33.0293
lhand -22.3306 24.9917
lfingers 7.12502
lthumb 4.08956 54.9322
rfemur -38.0208 -0.848538 12.348
rtibia 46.7513
rfoot -17.0508 -17.748
rtoes -7.08104
lfemur -14.3442 -15.0231 3.26735
ltibia 28.9944
lfoot -12.3225 -3.07905
ltoes -31.0994
267
root -1.84279 15.1312 5.83674 15.2712 25.946 0.526167
lowerback 1.20529 2.72019 4.5182
upperback -5.76852 3.72836 -3.30343
thorax -6.19695 1.54148 -6.24029
lowerneck -9.79902 -3.0517 2.97909
upperneck 22.3594 -5.0607 1.65499
head 8.54665 -1.91357 -0.449298
rclavicle 1.81391e-014 -1.98785e-015
rhumerus 6.82058 22.4758 -81.1412
rradius 136.907
rwrist -44.8492
rhand -22.2532 -4.30614
rfingers 7.12502
rthumb 4.1643 -34.2452
lclavicle 1.81391e-014 -1.98785e-015
lhumerus 6.95514 -31.9919 75.529
lradius 143.583
lwrist 32.7418
lhand -22.2717 25.2672
lfingers 7.12502
lthumb 4.14645 55.2066
rfemur -39.0841 0.341947 11.9293
rtibia 47.0217
rfoot -16.8057 -17.384
rtoes -7.2427
lfemur -12.4789 -14.9953 2.51327
ltibia 26.9856
lfoot -13.4341 -1.0792
ltoes -31.7592
268
root -1.80104 15.1098 5.82289 15.6283 24.0601 0.487554
lowerback 0.835111 2.70541 4.23638
upperback -5.88509 3.68923 -3.16723
thorax -6.13596 1.54043 -5.91549
lowerneck -9.95109 -2.46052 3.61307
upperneck 22.6352 -4.26266 1.14137
head 8.64784 -1.53075 -0.652369
rclavicle -7.7526e-015 1.19271e-015
rhumerus 6.72815 23.394 -81.335
rradius 136.558
rwrist -44.5303
rhand -22.2581 -4.47396
rfingers 7.12502
rthumb 4.15957 -34.4131
lclavicle -7.7526e-015 1.19271e-015
lhumerus 7.15688 -30.9962 75.1186
lradius 143.452
lwrist 32.5061
lhand -22.1807 25.5614
lfingers 7.12502
lthumb 4.23431 55.4991
rfemur -40.2032 1.56419 11.4528
rtibia 47.2192
rfoot -16.4714 -16.9017
rtoes -7.39283
lfemur -10.6385 -14.6988 1.60353
ltibia 25.1164
lfoot -14.3168 1.10325
ltoes -32.0421
